/* XPM */
static char *dd5208f8c3074cbbdb943c626dd72c92S9yx6hTqG5mUDLT4[] = {
/* columns rows colors chars-per-pixel */
"100 100 85 1 ",
"  c #040302",
". c #0A0604",
"X c #0D0907",
"o c #070709",
"O c #0A0708",
"+ c #070908",
"@ c #0E0B09",
"# c #110B07",
"$ c #100708",
"% c #140D0A",
"& c #190E0C",
"* c #171006",
"= c #191107",
"- c #16110B",
"; c #1B120C",
": c #110F10",
"> c #141312",
", c #1C1411",
"< c #1C1915",
"1 c #171719",
"2 c #1C1B1A",
"3 c #21150E",
"4 c #23180F",
"5 c #211511",
"6 c #221A14",
"7 c #231D1A",
"8 c #291F1C",
"9 c #1E201B",
"0 c #25211D",
"q c #29221D",
"w c #211F20",
"e c #1F2120",
"r c #242322",
"t c #2B2321",
"y c #2B2622",
"u c #2D2620",
"i c #292524",
"p c #2C2724",
"a c #2F2820",
"s c #282826",
"d c #2E2926",
"f c #2A2829",
"g c #2D2C2A",
"h c #2C2C2C",
"j c #302A25",
"k c #342A28",
"l c #312C29",
"z c #332E2B",
"x c #342F2B",
"c c #2E302D",
"v c #31302E",
"b c #35302D",
"n c #37342F",
"m c #3A322D",
"M c #39342E",
"N c #2F3130",
"B c #333230",
"V c #363533",
"C c #373634",
"Z c #383431",
"A c #393431",
"S c #3A3633",
"D c #3B3633",
"F c #3E3935",
"G c #3D3B3B",
"H c #423A37",
"J c #423E3B",
"K c #433F3C",
"L c #44403D",
"P c #44433F",
"I c #48433F",
"U c #413F40",
"Y c #454341",
"T c #474340",
"R c #494343",
"E c #484443",
"W c #4B4744",
"Q c #4A4947",
"! c #4D4845",
"~ c #504C4B",
"^ c #51504E",
"/ c #55514E",
"( c #565251",
") c #575755",
"_ c #585451",
/* pixels */
"@@XX@@@X@XOOO.XXXXXO.@@XOXX@@@@@X#@@@X@@@@XX@X@@X@XX@@@@#XXX@X@@@@@@@@@@@@@@XX#@##XXXXX@@@@X@X@@@@@X",
"XX@@X....@2r@-C^EPTv@.O-21@@@X..#X@@@@@@X@X... @@......... ...@@@O..O@@@@@@@@X.......... ....>e1 O@@",
"@XX Xhs-@>B_S<7uqqq6-7lFQB1<1>>o @@@@@@@@. rf@-1>@#7fVVCCCCC1@-11@<fX.@@@@@X  Vr-OOO%>rr<-X@.0QF@ O@",
"@X ),J~F7;-;;;;;;;;;;;;;;;;;;6y>  @@@@@X Cil/y%;;<xK!_/(//(_Ik5&;6SS>@O@@@#@riG~MtqtxFW!JHpqq-&;jX @",
"X.cn7;&;;;6;;;;;;;;;;;;;;;;;;;;6-  XXXO1vdH;;;-;;;;;;;;;;;;;;;;;&;;;<-.O@@X@!u;;%;;;;;;;;;;;;;;;;<@ ",
"@.w;;;;;;;5;;;;;;;;;;;;-;;;;;;&;;%O @@ V0<;;;;;;;;;;;;;;&;;;;;;;%;;;;;X X@ i0;;;;;;;;;;&;;;;3;;;;;- ",
"@.i;;;;;;;;;;;&;;;&&&;&;;;;&&&;;;<%  @ b;;;;;;;;;;;;;;;%;;;;;;;;;&;;;&#..X b<;;;;;;;;;;;;;&;;;;;;;; ",
"X.<;&;;;;;;;;;;;;;;33%;;;;;&;;;;;;<X   y;;;;;;&;;;;;;;;;&&;;;;;&;;;;,;;X  ra;;;;;;&;;;;;;;;;;3;;;;;.",
"X@0;;;;;;;;;;;;;;;;;;%&;;;;;;3;;;;;<&  @;;;;;--%&;;;;;;,&;;-&;;;;;&;;;,;. l;;;;;;;%-;;;;;;;;;,;;;;;.",
"X10;;;;;;;;;;;;;;;;3;;-;;;;;33;;;;;;;@  %3;;;;;;&;;;;3;;;;&;;;&&;;;;;;,;# t-;;;;;;;;;;;;;;6;;;;;;;&.",
"@17;;;;;;;;;;;;;;&%;;;;;;;;;;;;;;;;;;-  X;;;;;;3;;&;;;;;;;;3;;#&;;33;%&;- 2;;,;;3;;;;;;;;;;;;;;;;;% ",
"@><;;;;;;;;;;3;&;;%;;;;&;;;;;;;&;;;;;;#  @-3;;;;;;;;;;;;;-;;;;;;;;;&;;;;& s;;;;&;;;&;;;;,3;;;;;;;;% ",
"X>6;;;;;;;;;;;;;;3;<5;&;;;;;;;;;;;;;;;;.  %;3;;;;;;;;;;;;;;;;;;;;;&;;3;;;.2;;;&;;;;;;;;;<;;;;&;;;;@ ",
"@-6;;;;;;;;;;;;;;;;;33;;;;;;;;;;;;;;;;%;  .<;;;;;;;;;;;%&;;&;;;;&;;;;;;;;.>;;;&;;;;;;;;;;;;;;;;;;;X ",
"X@>;;;;;;;;;%%;;;;;;;3;;;;;,;;;;;;;;;;;;.  %;;;;;;;;;;;;;;;;;;;;&;;;;;;;;.2;;;;;;;;;&;&;;;;;;;;;;4% ",
"@ @;;;;;;;;;&%;;;;;;;;;;;;;;;;;;;;;;;;;&%  X&;;;;;;;;;;;;;;;;;;;;-;;;;;;5XX<;;;;;;;;;;;;;3;;;;;;;;# ",
"X.#;;;;;;;&;;;;;;;;;;;;&;;3;;;;;;;;;;;;&;X  -;;;;;;;;;;;56<;;;;;;;;;;;;3;X ;;;;;;;;;;;;;;;5;;;;;;&. ",
"X.@6;;&%%;;;3;;&;;;;;3;;;&;;;;;;;;;;;<3;;#  ,;;;;;;;;;;;;<;;;;;;;;;;;;;5;. ,&;;;5;;;;;;;;;,<;;;;&%.O",
"XX q;;;&&&33;;;;;;;-;3;;;&;;;;5;&;;;;;;;;; .%;;;;;;;;;;;;;;&3;;;;;;;;;;;;. ><;;;;;;,;;;;;;;;;3;;;% X",
"@@@7;;;;;;;;;;;;;;;;;;;;;;;;;;;;;;;;;;;;;;. @;;;;;%;;;;;;;;;;;;;;;;;;;;;;. o<;;;;;;;;;;3;;;;;3;;;; X",
"XO>7;;;;;;;;;;;;;;&;;;;;;;;&%;;;;;;;;;;;;-X @<;;;&%;;;;;;;;;;;;;;;;-;;;;&X  >;;;;;;;;&;,;;;;;;;;;; @",
"X.r7;;;;;;;;;;;&;5;;;;;;%%;;;;;;;;&;;;;;;#X >5;;;;3;;;;;;;;;;;;;&;;;;;;;&#  #;;;;;;;;;&&-;;;;5;;;% @",
"X.0<;;;;;3&;;;;;;;;;;;;;%%;;;;;;;;;&;;;;;;. ><;;;;;;;;;;;;;;;;;;;;;33;;;&# O@<;;;;;;;;;;;;;;;5;&;% O",
"@.2#;;;;;;;;;;;;;;;;;;;;;;;;;;;&&;;;;;;;;;X 15;;;;;;;;;;;;;;;;;;;;;;;;;;-# @>6;;;;;;;;;;;;;;;;&;;& O",
"X 7,>;;;;3;;;;;;;;;;;;;;&;;;;;;;;;;;;;;;&%X #5;;;;;;;<;;;;;;-%;;;;&&;;;;%# @>6;;;;;;;;;;;;;;;&%&;& O",
"X >5;;;;;;3;&&;;;;;;&;;;;;;;;;&;;;;;;;;;;X  #;;;3;;;;&;3;,;;;;;;;;;3;;;;;;. @<;;;;&&;;;;&&;;&;;;;% O",
"X@ ,;;;&;;;&;;;3;;;;&;;%;;;;;;;;;-;;&;;;&  @><;;;;;;;;;;;;;;&%;;;;;;;;;;;;X <6;;;;%%;;;;;;;;;3;;;% O",
"@@  %;;;;;;;;;;;;;;;;;;;;5<;;;;;;;;;;;;;% OO-<;;;;;;;;;;;;;;;;;;;;;;;;;;;;. <5;;;;%;;&;&;;;;;;;;;% X",
"@XX #%--;;3;;;;;%&;;;;;;;5;;;;;;;;;;;;;-  XO%,;;&;;;;;;;&&;;;;;;;;;;;;;;&% .<;3;;;-;;&;;6;;;;;;;;- @",
"@@@ @>;;;;;%%#######%;;;;;;;&;;33;;;;;;; .@O><;;;;;;;5;;;;;;;;;;;;;;;;;;;; .7;;;;;;;&;;;;;;;;;;;4; @",
"@@#.>6;;;%.          X###X%##%&;;;;;;&;% .@Ot6;,;;;;,;;;;;;3;;;;;;;;;;&;;# Xl;;;;;;;;;;;;;;;;;;;;; @",
"#@X l<;;#         O          OX%;;;3;;;%..@.7;;;;;;;;&;-;;;3;;;;;5;;33;;&X .y;5;;;;;;,;53;;;;;;;;% X",
"#X@ g&@.  +U7<vGK9 .X@X. .X@   .#;;;;;;; .@O<;;3;&;;&%;;;;;;;;;;;;;&;;;&%. X0;;;;;;;;;;;;;;;&%;;&# X",
"@@@ 1.   1K0xpmSx<<1>O...O.O...  #;-;;;;..@O<;;;;;;;;;;;;;;;;;;;;;3;;-;;X  v0;;;;;;;;;;;;&;;;;;;&# @",
"@@@. ... r0,;;;;;;67F-.OOO@>@> X. %;33;;.O@.%;;;;;;;;;;;;&&&#%%%;;%%%%%#.  x;;;;;;-;;;;;;;;;33;;;% X",
"@XX@@@@ @d;;;;;;;;;;<;<<666>6q@ X .;;;;&..XX@>;;&-;;;;;=#......#XXX.@X.  . >;;&;;;%;;&;;;3;,;;;;;% O",
"@@@@@X @l8;;;;;;;;;;&;;;;;;;;5<. O X;;;;% XO@;;;;;;;;&#..               XX  .X.X##%;;;#%;;;;;;;;;X X",
"@@@@@ @lq;;;;;;;;;;;;;;;;;;;;;;#.. .;;;;; XOO;;;;;;##     >r1@-1rr2@@.  .          ..##&;;;;;;&;; .@",
"@X@X @V6;;;;;;;;;;;,;;;;;;;;;--;X O #;;;; @X .#%;#%   . G2r!FtxFRFi1>@X#<rvBh1.   O   .X%&;;;;;;% .X",
"@@X.@S6;;;;;;;;;;;;;3;;;;;;;;;;&; .  X#-. X@.       . 2vGH;;;;;;;;;=;;6jSPTJi<-1C>  .X  ..#;;;;-. @@",
"@@X Gu;;;;;;3;;;;;;;,;33;;;;;;;;;. @. .. .XX@.    ..>OKy<;;;;;;;;;;;;;;;;;&%;;&ux<<S>@X    .#&#. .@@",
"@@.Bt;;;;;;;;;;;;;;;;;;;;;;;;;;;;# XX...O.  X+ ..rB0ixa;;;;=;;;;;;;;;&;;;;;;;;;;;;7q6b>O...     .@@@",
"XX g;;;;;;;;;;%;;;;;&-;;;;;;;;;;;# X@@X@ 1B%>>@-<f/R75;;;&&;;;;;;;;;;3;3;;;;;;;;;;;;;3;<r  .XXXX@#@@",
"@.2S;;;;;;;;;-;;;&;;;;;;;;;;;;;;;;. @@XOrhP7;;<<>;;;;;;;&&;;;;;;;;&&;;;;;;;;;;;;;;;;;;;,y-g> XO@@X@@",
"@.s<;;;;;;%&;;;;;;;;;;;;3;;;;;;;;;# #@.rP0;3;;&;;;;;;;;;;;;;;65;--;&;&;;;;;;;;;;;;;;;,;;;<t<yr@..@@@",
"@.2-;;;;;;;;;;;;;;;;;;;;;;;;;;;;;;% @O g7;;;;;;;;;;,;;;;;;;;;;;;;;;;;;;-;;;;;;&;;;;;;;;;;;&,6<t> XXX",
"@.y;;;;;;;;;;;;;;;;;;;;;;;;;%;;;;;;   vb;;;;;;;;;;;;;;;;;;&;;;;3;;;;&&;;;;;;;;%;;;;;;&;;;-&;;;;%  @@",
"@.<;;;;5;;;;;;;;;;;;;;;;;;;;;;;;;;;X  r;;;;;;;;;;;;;;;;;;;&&;;;3;;;;&%;;;;;&;;;;;;;;;;&;;;;;;;;;# #@",
"@.<;;;&&;;;;;;;;;;;;;;;;;;;;;;;;;;;%. y%;;;;;;;;;;;;;;;;;;;&;;;;;;;;;&;;;;;;;-;;;;;--;;&&;;;;;;-% O@",
"X.-;;;;;;&;;;;;;;;3;;;;%;;;;;;;;&&;;.2i&;;;;--;;;;;;;;;;;;;<;;;;;;;;;;;;;;33-;;;;&;;&&;;;;;;;;;&& .@",
"@.<;;;;;;;;;;;;;;;3;;;;;;;;;;;;;;;;;%2<&;;;;;;;&;;;;;;,3;;;;;;;5;;;;;;;;;;;3;,;;;;;;;&;;;;;;;;;&;..#",
"X.-;;;;;;;;;;;;;;;;;;;;;;;;;;;;;;;;;%16;;;5;;;;;;;;;;-;;;;;;;;;;;;;;;;;;;;;;;;;;&;;;;;;;;;;;;;;&;O.@",
"@.>,;;;;;5&;;;;;;-;;;;;;;;;;;;;&&&;;#26;;;;;;%;;;;;;;;%&;;;;;;;;&;;;;;;;;;;;;;;;&&;;;;;;;;;;;;;;;X.X",
"@@ y;;;;;--;;;;;;;;;;;;;;;;;&;;%;&;;%%<;;;;;;;;;;;;;;;;;;%;;;;;%%%;;;;;;;;;&;;;;;;;;;;;;;;<;;;;;;O.@",
"@@ 7;;;;;&&;;;-;;;;;;;;;;;;;;;;;;;;;%1<&;;;;;;;;;;;;;;;;;;%;;;;;;;;;;;;;;;;;;;;;&&;;;;;;;;<3;;;;;..@",
"@@ -;;;;&%;;;;&;;%;;;;;;;;;;;;;;;;;;@X1&;;;;;;;;;;;;;;;;;;;;;;;;;;;;;;,;;;;;;;;;;&;&;;;;;;;;&;;;;..@",
"@@ .5;;;;;;;;;;-;;;;;;;;;;;;;;&;;;;;X@<;;;&;;;,;;;;&;;;&;;;;;;;;;;;;;;;;;;;;;&;;;;;;;;;;;;;;%;;;.  @",
"@@X -;&;;;;;;;-;;;;;;;&;;;&;;;&;;;3;. >;;;-;;;&;;;;;;;;;;;;;;;;;;;;;;;;;;;;;;&;;;&;;;;;;;;;;;;;#. XX",
"@@@ <%;;;;;;;;;;;;;;;&;;;;;;;;;;;;;#  7;;;;;;;;;;;;;;;;;;;;;;;;;;;;;;;;;;;;;;;;;-%-%%;&%%%;&%##. .XX",
"@@@ d;;&;;3;;;;;;;;;;&;;%&;;;;;;;;;X  y;;;;;;;;;;;33;;;;;;;3;;;;;;;;;;;;;;%;X.XXXXX.  ..  XX.   .@@@",
"#@@ d;;&&;;;;;;;;;;5;;;;;;;;;;;;;;%  .73;;;;;;;;;;;;;;;;;;;4;;;;;;;;;;;;;;;#                  .X@@@@",
"XXX d;;;;;;;;;;;;;;5;;;3;;;;;;-;;;% . 7;,;;;,;;;;;;;;;;;;;;;;;;;&;;;;;;3;;#   O@@OOOX@XOX@@@@@@XX@@@",
"XXX t;;;;;;;;;-;;;;;;;;;;;;;;;;;;;X @o0;;;;;;;;;;;=-;;;;;;;;;;;;;;;;;;-#X   X@@ >rO-2Ks-> .@@#@XXX@@",
"@XX <;;;;;;;;;;;;;;;;;;;;;;;;;;;;# .@>0;;;;;;;;;;=;;;;;;;;;;;;;;;;;;;#X   ..@  G1~y;;6<q7%>.@#@XXX@@",
"@@X #;;;;;;;;;;;;33;;;;;;;;;;;;;;# XO2q;;;;;;-%;;;;;;;;;;;;;;;;<;;;...  XXXO C0P0;;;;;;;;a<X XXX##@@",
"#@#X.;;;;;%;;;;;;;;;;;;;;;;;;;;;=X @O<6;;;;;;;;;;;;;;;;;;;;;&;;,;%.   XXXXX.fbm;;;;;&;;;;;<6-@ @@@@@",
"@@X@ -33;;;;;;;;;;;;;;;;;;;;;;&&&X X.26;;;;;;;;;;;;;;&;%-;;;;;;;.  ..@@#@@ rS<;;;;;;;;;;;;;5<lX.O@@@",
"@@@@..;;;&3;%;;;;;;;;;;;;;;;;,&&;X.@Xt;;;;;;;;;;;;;;;&;=;;;;;%&%  O#XX@#XX v<-;;;;;;;;;;;;33;66X @@@",
"@@@@O  ;-;,;;;;;;;5;;;;;;;;;;;;;;X.@Xy;&;;3;;&&;;;;;3;;;;&;;=X.  @@@XX@@X TS;;;;;;;;-;;;;;;&5;;X. @@",
"@@@@@O .##;&;;,;;;;;;3;&;;;;;;;;;..@.%###%#&;;;;;;;;;%;;;;%#.   #XXXXX@@X1S<;;;;;;,;;;;;;;;;;;;&# .@",
"@@#@XXO   XXXXX#######-%%;&;;;;;% .#.      X#X&;;;;;;%-%XX.   O@@XX@@@@@.rj;;;;;&;;;;;;;;;;;;;;;;X @",
"@@#XX@X#.            ....X...X&;. X###X.@@    X#XXX#X..    oX@@@XXX@X@XXOt6;;;;;&;;;;;;;;;;;;;&&;# @",
"###XX@@@#@@XO                 .  .@@@@@@XO.O.            .O.OOXOXO..@@@XO<;;;;&;;;;;;;;;;;3;;;;;;# X",
"@@@X@@@@@XX@@@XX@X@@XXXXX@@@X   .@@@@#X >0-11. @@@@@@@@@# 22@----#1@ OXX.%;;;;&;;;;;;;;;;;;;%&;;;% X",
"@@X@X                    .@@@@@O@@@@@@ QgTFSi-r O@X#@@X  TlJ<&%;-7S<> XXO>-%;;;;%;;;;;;&&%;;;;;;;& X",
"@@@@ VT,,,>>><>%%>,,,#-yTg .@@@X@@@@@XTyl;;;;0<,#..OX. NSl0;&;;;&;;;<# @O><;;;;;;;;;&;;;&;;;5;;;;; @",
"@@@@XbSq&;<;&;;<76;;;6qab7- .@@X@@#@@VS-;;;;;;;66S2<US<0S3;;%-;;;;;;;6X O<<;;;;;,>;;;;&;;;;;;;;;3; @",
"@@@ Kd;;;;;;-;;;;;;;;;;;&;<#  @@@@@@@l5;;;;;;;;;<q<,7q<;;;;;&&;;;;;;;6#  @7;;;;;;;;;;;;;;;;;&&;;;; @",
"XXX t6;;;;;&-;;;;;;;;;;;;;;6#  @@@@X@u;;;;;;;&;;;;;&;;;;;;;;;%;;;;;;;;;X -<;;;;;;;&&;;;;;;;;&--&;- O",
"XX Vq;;;;;;;;;;;;;;;;;;;&;;;6-@O@@@X.;;;;;;;;;;;;;;;;;;;;;;;;&;;;;;;;&;#  7;;;;;;;%&;;&;;;;;;-;;;# X",
"X@ V;;;;;;;;;;%&&;;;;;;;;;;;;<<@ XX@.,;;;;;;;;&;;;;;;;;;;;;;;;;;;;;;-;;%  #;&;;;;;;;;;;&;;;;;;;;;. X",
"X@ 0;;;;;;;;;&%;;;;;;43;;;;;;;;<> OX.<;;;;;;;;;&;;;;;;;;;;;<;;;;;;;-&;;;  13;;6;;;;;;;;;;;;;;;;;;..X",
"XXXb&;;;;;;;;;;;;;;;;33;;;;;;;;;p@.@.>;&;;&=;;;&&;;;;;;4;;;;;;;;;;;;&&;;  f<;;;;;;-;;;;&&&;;;;&;;..X",
"@.f0;;;;;;;;;;;;;;;;;;;;;;;;;&-;>>. X@;;;;%;;;;;;;;;;;;;;;;;;;;;;;;;;;;%  l;;;;;;;-;;;;;;;;;-;;;; .@",
"@@l;;;;;;;;;;;;;;;;;;%;;;;;;;;;;;;X O@-3&&-;;;;;;;&;;;;;;;;;;;;;;;;;;;;#  g;5;;;;;;;;;;;;;;;;&;;; .@",
"O>0;;;;;;3;;;;;;;;;;;;;;;3&;;;-;;;;.  <;%;;;;;;;;;;;;3;;&=;;;;;;;;;;;;;. .t;;;;;,;;;;;;;;;;;;;;;; O#",
"O17;;;;;;;;;;;;;;%&;;;;;3;;;;;;;;;&X  <&&;;-;;;;;;;;;;;;;=;;;;;;;;;;;;-  @x;;;;;;;;;;;;;;;;;<3;;; XX",
"O>6;;;;;;;;;;;;;;;;;;;;;&;;;;;;;;;;% . #%;&;;;;;;;;;;;;;;;;;;;;;;;;;;;# .rt;;;;;;;;;;;;;;;;;3;;;; .X",
"O>6;;;&;;;;,;;;;;;;;;;;;;;;;;;;;;;;# @ .-;;;;;;;;;;;;;;;;&;;;;;;;-;;;;X .r<;;;;;;;;;;&%;;;;;;<;;;..X",
"O@<;;;;;;;;;;;;;;;;;;;;;5;;;;;;;;;;X X. X;;;;;;;;;;;;;;;;;;;;;;&%;;;;;. >S<;;;;;6;;&;%;;;;;;;%;;*..X",
"X17;;;5;-;;;;;;-;;;;;;;;;;;3;;;;;%;. @# O&;&;;;;;;;;;;;;;;;;;;;;;;;;;; .-7;;;;;;;;&;;;;;;;;;&&-;;..@",
"@:<%;;;;;;&;;;;;;;;;<;;;;3;;;;;;;%&. XXO #&%;;;-;;;;;;;;;;;;;;;;;;;;;- X@7;;;;;3;;;;;;;;;;;;;&-;;#.@",
"@17&&&;;;;;;;&%;&;;;;;;;;3;%;;;;=;;X @XX ,>;;;;;;;;;;3;;;;3;;;;;;;;;;X @@<;;;;-;;;;;;;&;;;;-;;;;;#.@",
"@>6;;;;;;;;;;;;,;;;;;;;;;&&&;,;;;;;  @@XO<;;;;;;;;;;;;;;;;3;;;;;;;;;% O@@<;;;;;;;;;;;;;;;;;;;&;;;%.@",
".<6;;;;;;;;;;;;;;;;;;5;;;;;;;;;;;;# X@@ 1y;;;;;;;;;;;;;;;;;;;;;;;;;#  XX.;;;33;;;;;;;;;;;;;;;;;;%..@",
"X #;;;;;;;;;;;;;%#XX%5;;;;;;;;%;;-. @#@ 2&%%#%%;%;;;;;;;;;;;&;;;5-X  OXX #&;;;;;;;;;;;&;;&;;;;;X@ .@",
"@  .X&;;;;;;;;;@.   . %;;;;;;;&#.. @@#@  .......X%;;;;;;;;;;;;;#..  @XX@. X&&;;;;;;;;;;;;%#X##X   X#",
"@@     .X.XX...   ..    .###X .   OX@@@@         .....#%%%%%%#..  .XXX@#X  $###%#%%%%%#..X      @X@@",
"@@X#..         .@@@@@X..       ..XXXX@@@@@@@@@X .. .            .#@@@@@@@O               .....O@@@@@",
"@@X##@X@XXOO@@XX@@@@@@XXX@@@OO@X@@@@XX@@@X@X@@@@XXXXX@@@@@XO@@XXX@@@@@@X@XXOOO@X@XOX@OOX@#@X@@@@@@@@"
};
