/* XPM */
static char *_386b52d33cd4626ba4fbd1f43f6f1f1gVFJ5qdL5nxBFEqh[] = {
/* columns rows colors chars-per-pixel */
"100 100 38 1 ",
"  c #5B92D2",
". c #5E94D2",
"X c #5E93D5",
"o c #5B95D5",
"O c #5D97D7",
"+ c #5E98D7",
"@ c #5F94D8",
"# c #5E95D8",
"$ c #5E98D8",
"% c #6096D2",
"& c #6194D5",
"* c #6197D7",
"= c #6497D6",
"- c #6599D3",
"; c #6199D6",
": c #679BD7",
"> c #659CD5",
", c #689AD7",
"< c #699DD7",
"1 c #6196D8",
"2 c #6497D8",
"3 c #6399D9",
"4 c #6699DA",
"5 c #629CDB",
"6 c #679DD9",
"7 c #6499DD",
"8 c #669CDC",
"9 c #689BDA",
"0 c #6B9FDB",
"q c #6C9EDB",
"w c #689BDC",
"e c #6B9EDD",
"r c #6D9FDC",
"t c #6AA1DA",
"y c #6DA1DB",
"u c #6AA0DC",
"i c #6EA2DC",
"p c #6EA1E0",
/* pixels */
"iy0yyyyyyyri02#4itt:900y00yiyy0yyyyyi066000yyyyy0:00068844331O00eryyyyiyy0000eyyyyy043:00000e00iy0yi",
"yy00iyyy0000003*0yy>0e0y00yi000iyyyyi04*000000;404000O14;:00e4000iyyyiyyy0i00iyyyy0439000yi0000y00yi",
"ye0yyiyyyi0000:34yq0000yi0y0y000*0yy0046qq000e*3e0000000000000000yyiiiyyyyi440000ii000000yy00i0000ir",
"00yiiiyyy0iyiiq*Oyi0q4iy0eyy0000iiiyyiei0000000e00y00i0yi0000iityyyyyyyyyi0O4y000iry000iye00y00yi0er",
"0iyiir0iyyyt00i0;0i043t0000y000i00000i0i00i000ii00iyiiyy<00yyii000994*4000;O4rt00ie900e6*:0040yiyii0",
"iyyieyyyiiuee0ii000434t00000yty00000006t0000000yyryyyi004:000:4:33**42e9009*<0yy0yi66041O344e00y9yy0",
"iyyyyiyy0iiyy00y000430i0000iyyyyyyyyy,ee0:0000iiyyi0e94:3006;O369000000000000000iyy044O36134r30;ey00",
"e09yyyyy0000iy00i004$yyy0400yyyytyiy00e00ee0i0i00000000:00000040iiyy0q:040iriryyyyy0333:y030e404yy00",
"0<4ee0yyyi00e000e0443iyy00000yy0000e00;00000e0000000q<00<0004600yyyy00:000000000yyy0040:yi0y0049yyr0",
"00ee00000<e0:0000y0;*ii000000i0:000000*400i0000000e03333*OO1*4000000000000000000eyi00*040y00i0690yi0",
"iii000<:0:e00000iy03e00:000iiie4*90000y90y0000yiii01111O#*;6600000000000:000000i0ii0i;0:0i0ei04;*iyi",
"tyi00::000000i0i06*4000009eryyy6*eiy000e400000y0i0;*44e000e00000ryi000y000,000yii0000;0000i60y0;2eyy",
"yyyi0<900yyyy00e040y000:9340yi06:0y00000e00e0y00000000eq00000ri00yi00r000<0000r4;00000yy00000yw6:0:0",
"*460yyy040i000iyq00i000006400000<4e9000yy0i0000e000it44:009er0000<00yi4q0:0e00w40yry0%i000690:04Oe04",
"69eiyi0y09490iiiirr0e00ii0:0r00< ;00000000000000000ii9e0008*X18e0:00yy0y0;0e600iyy000O6rri0*03003606",
"*160009weiii0r000e000*346000iiy*;00000994:0000000440w6:;*e043XO*0;;4000y049=e0ei00400420ii03430y0=0w",
"044*;;**44069:000e44692*OO4eyyy3i000000:0000r00001*;46*::00006;X839,0,0i00:00000440000:40rr63e0004;4",
"0e96;84*3691*3O;0<440e000**:yyi490iryyy0000::0:0:O0e000ye00q0yy0%O:00e0y0040qre0000000000q60**00i09*",
"%3600eee99w4*OO*9e0e0iyyyy0:y00;:yyiyii00000<:940qiyyir06;4:00y00:0:0i409943ryy00000yyyy0q44*4400ue9",
"4;36064713***3;40000000000000i03eiyyy000yyi0e000tyy000004460000i0000;06400000iyyyyiiiiyyi06**6190000",
"i06e00ee31=9000033e*::000000qyq040yyy000eyyyi000y0046000e0:0yiyu0<yy43r;e0000ity00ru0iiy0r04#*3;9000",
"000*y034<;300ir4OO;4990000iyyyyi*0iyyi000000i00089600e0090000iyi0y000Xe;u00000yq00ieee0000606O34O0:0",
"e00i3e360e6000e1OO4e0q0iy0y00eqy430yyyy00000y0040e000e**3444e0yi00;O4O469ie0000y00002O3000000#O*1944",
"40e04*4;40*iy442340400e0000000000:00iyyyy000044494633314409eeee0ee43OO3000=e00Oq0000448009:463346:2*",
"1000:3O*ee:i0%1*491Oweee0000000000:990000y:046*04404*40e03OOOO11ee363;*::rOee0000000ryie0::;00e00044",
"90093094y0*4OOO44**O;00qq0:4ww3300:O##4e00<0e6e6000:0004***13;4*00:007*4er;000iii00uii00O800eyy0i00e",
"r00e:0r006O1OOO;9049:;;;333OOOO400043600yi0,9440090:004*4;64000eiy0604X48i10:4ii0000440036iyiyy0000y",
"yyyyq00:*;;3O;0000<064;*OOOOOO*;660044yiyi0:<00e:,00:;**311*ri06900009*:e040330q011*O*00qyyyy0ii000y",
"yyiii00::0e:400qqi0:94*1=*190i0;**;00*uyy000000;O**e63*;*OO#O1uie00y0y40e<00::406*O1O9000yyy000i0000",
"yriyii00e4e<06436<4X1O*;3X154460:*O1q48yy000002*OOO=060:*O363*3000<04000430446e9::0:4ei00y0y000iii0y",
"0iyyy0334*0941OOO4O#*OOO*11OOO*331OO444yi06w0;*443;:00q0;*30*911<4332*0i:60e9000000yy000y000000ii0q0",
"00yy03$O11164OOXOOOO***4,:996;1OOOOo#44uyt49;420000i08:644*00901*;3e04600yy044:6e00iiiwri0e00e00e000",
"*4yy0;3O1*.eOOXO1OOOO4000000rr04**OOO499yt=44*e0:00q*O3;6O30i:0;X*7004e0y06;O*40iiityi:ru00eyi009;60",
"eeiy04rOO174OOOOOOX300000yy0uyiq;=*7O309iye*4*00000;OOOOOO4ir0yi*;40040:09;;4600r000re36009=00000;40",
"0iy0046#O3XOO#XO*44e00yiiyyiuuiiy0*OOO300u00:3er09;OO*31OO0i0y00090i000000000i00iiyty;44004*000006ti",
"0i0001.X*OO134O900u00ityy00ii000ii0O3414i0i0044ie9OOO*O1Xryi0y060yqq000yy000i00iyyiyy;64ii4w00000yyy",
"00604OO4OOeO40*30i00yyiiy0yyyyyi00u*41O6000000;i090400::000iee;:009i00yy0<00ytiiyyyyyO840:100ii00iyy",
"0:0i=*.eO34100::00qqyy0yyiyyyyy000e*3OOi400006w0qe000000e0:0003;;300480ir000i0iy0yy0i43400:000iyyy00",
"q0yt*O*3X;**u04000rqyyyyyyyyyyy0q00e*1*y0y0y0000err0e9:**800i014*60;900i000iriyyiiiiueO44y000000ry0y",
"0iqy*O3OX;X4ri0:00yyyyyyyyyyiyyyyye*O**y000iyi000rtrir0OX400uO=400e9yiii000iyyyqu0iyir#4;0iiie0yyyyy",
"00*eOOOOX3O0ii00yiyyyyyyyyyiiiyyyy01OO*y000136iiiii049334;00930ii04000y0yiiyytiyytiytt93*0i0ie0iiyy0",
"094043*O*4Oy00q00yyyyyyyyyiiiyyi006OOO40ii66600eeu06**3;634430iy0*400yyyyyyyyyyyyiy0ty01*iiyy0yyyy00",
":0ti6;OO30Oiqriryyyiyyiiiyyyyyyy0i:OOO40i4O1OOO3*O**O39406O40yi0090etyyiyyyyyyi000eyyyy3;yyiyyyyy0:0",
"0yy00*OO1,O4yiiyyyyi00000yyyyyyyyy4XO160043*;;;;;*40ii64*O*w0iy00640iyiyyyyy0:0000000yt4Oiyiyyiyy000",
"qy0041*OOO*3y00yy0yyiiyyyyyyyyyyy03*O400y0e000000iiq844O*33:i000r0:0iyq000i0;:00e0t0iyy3#yyyiyiyyt00",
"001664OOO$O*0iyyiyyyi0iyyyyyiyyy0:#4+0iyty000000q0043**39000400e0000y006ty6040;;440000y0Xiiiiir0y000",
"000rir*XOOO#4iyy0yyyiyi0iyyyyyy00*3O;00e00<:0000<0000i0yq041e000000iirqye0*9e460e4*0000060yiyyi00=40",
"00iit00304**90yyyyi000iyyyyyyyy04O3O600000uee00000000y04e*140000000y0e069e:9499*30:;0000e*yyyyy00000",
"0iy0y00e*400e600yyiyiyyyiyyyi000O*1300eyyeyyii0000600000e30,:y0000009040>000400420:eeetie*q0yyy0yqy0",
"e00yy0eie4i000i00000e0000iy00<i;o**0iitiyir0i0i000=0ii00q;900yy0y0y00e000;6;;00qq40ee0ye8*iyiyiyyyi4",
"000000000e0000iyr00ii00iii06yyy*#4<0iyy0<00i00i000000yiu0040000ieiy0t004*O600000i00*,qiiwOiyyyyyyy0;",
"4ee00e00000yi00iyyiyyyiiiy0yiyy;0y0irr04340000000*33:9yy0099;O4y0i00y09*;40004ret40;46008Oiyiuy000e4",
"iyy00yy00ti00i0yyyyiyyiyyyy0y0y600e004:0330009e40OO404e006449000ii09i0e0000000iei350;O0463i0000000i0",
"i00iyiyy0yy00e0000i0yyyyyy00iy000990;4*400000e0600O*00;4000:iyy0ey00y0;000900qi00*Oe00q66166e000iyyy",
"ie0y00yy000000<00yyyyy00re40y0i000004900q0000y094i0O3:340000000y0iy0t04:0i0yyi000*O4yy048Oe40ytyyyy0",
"i000iyii0t4u000yyyyy00000*10q0yi000000yqiiie00006303##00y00000064000t004:000000063*3yy04;3000yy00000",
"y0;<0yy0000000y0yyy000000.;0006000yyii0iiii000000466OO3900i0e*4eO3e000000:;20000;9*O6t03*ee69qtii000",
"y0;*0y0000y0iy00yiiii000i1;**000iyiyiiyiiii0000:0y*0OOO40ty9:O*00;*0000<009490y00i64004O*09;.eyyp0yy",
"yi0O0rq00y000y<00000rii006*110000yyy000iyyy0y0ew00u31OOO80y000e4004;;44449;0e06;0yi0003O40;*4eiyyiii",
"qy0;:yy000000r000000iy0i4eX*300yyr00000yyy090ee90e0**XOO;<0y000*00000644440006;0iyyyyy4O9:346eyiiii0",
"eiy40qi9e;9i4qi00000y0003*O3Oiyye40y00y0q:0:600000i4**OO*y60ye0*O;3O490r0008O:weiyr0yy4O863eew0urii*",
";yy64900t60yi0y000:00e143OO43iy0e0900ey000940000e0i4*O8OO64e094*O33090e09;33;0=00::0ii*O4r348wiyy00;",
"*0i*OO00y00yi4y0000006XOOOOOei0043*00i0i0000000000r3XO4*O1440342;O344:e004:0000000000r*O3wO1eer00000",
"OO**OO0i0q000*400000061*OOO*i0044*30ie00000000000004OO*;OO*3444:8360q0009000tyyii0i00i*O1eOOu4000063",
"OO*9oO00e0%:9*Oyy00iyi0OOOO400i4#*90y00y0<0000y000e9*OO*OOOO:e00eriiii00:490ryi000r0ii43O**Oe3009:0*",
"***4*O4yi0400;*0000yy003OO#wr0616*900000w3*000yi00243;O;1O1*0eqy0i00iyy009*44<000000yu*3#OO33*009;03",
"4;$*133yy040004*400i000:#O*ee0300390;*4441O4000i009;40433OO10iy04*6iiy0000060:0400iyyy**OO#4*109;*04",
"00*w344e00000y0300000004Oo10003:0340*4004**000i0003eii034*O*yyq*4*6i0ree000:00i4:0yyii*;OO14OO;*3100",
"00006*e600r00003e00000414O30064064O*3e0049000ii00e14i00;3*93uyy03;0e006e000qq<0yyyyyyi*e*#33O13341<r",
"yi0:4*96000;;0<3eee000O1*O;004;0093:000090000yi094;900i04*3*e00wX600000e00iiy00iy00y0i44*O*3OOOX3O9i",
"yi003*16e00;;0630e00y<O:6840i3:0y0:40090e0:0yyy00y00iyyy;4OO00e31e00300reii0yy0000000i04*OO8OOO*O*30",
"e09OOO*0<i0000Oe0000y060ier00*;yye0O00060064yyyyy09yyy00e0110yi*ii6X*00iy0iyyyy04yy0000440O4X#30OOO*",
"O90;44e00y0041*i0000000r0;400O:yy0094e00q0e900yi00yyy00000;*yyi0y04;;00i00u0000i04ty0004O9**813iX3OO",
"O*00:6e04000630t0004:0yr43e0034yye000009e0i0000yyyi0000r000:yyyyy040009e0yy00000040yy0q4*40*8*6034OO",
"OO400;904:0090yy<00306y0w60047eyy0ye9*4200iiiiiy000e0eie000i0iyq90q00000yii0000yyy040yy07103O36:613O",
"OO4004e0000000y000*3600e8;09*e9yy0y0000000000000iiy00yq0000t00e44e00iiyy000i0q00y00040yyy*04O3e;023O",
"4O40000qy00090000;*00444*40e*:eiyiy0000000i0rqqyye00e00i00060:33e0000r000000064400ir00000e;0#1e9:43#",
"41100000e06;:0000O00eO33300i000yyiyy0000000yyyyu4*<0000000y40qe0:00ee40000:00004004;0i06;609;O44*43O",
";6X0000000:e00qqi*0,iO4*40yi0yiyiyiyyy00000iyir3O*000000iy0300900i09*9e040ee0:::=4e03*0q6Oe:0O3*0:*#",
"303q00q000009930i30;0O34e00ei0yy0yyyyiyyyyiyy04O;0000000i4OX6;60i4;;0yyi0eee90099000e09ry:4;:O3460:O",
"4q4i0yirry>3O*4t04034O3660040yiiyyyyyyyiiyy0,:09i00000004O;164600*39i0000i0ie00440040eiyyy8*44;604:#",
"000iyy00iy940900;Oe633406000yyyyyyy0yiiee4*1*:000yyy004:400:00006:400ee0000yyi0000e;400iqi0:*006040O",
"iyiy00000000t:004Oew3e2463:yiyyyyyy0yyy0;;;000000yyy00340y0;00ii4ww00iii00iyyii0000:36034600.0049404",
"i0ii00000044*:00i*:44u34830iiqiii00eyy0::0u0;*e0yy00iy00000;0ey<69:00<yyyyyyii000i09*003O*490*000;0q",
"i00000i0iii004:ei3446i:36wiyyyyyy00000000041*400000yyy0i0003e0y:6900000yyyeeiyy00ie4:09*OOX4y300i000",
"000e000i000iyy00yy134e0:430yyiyiy0eiui00i0#*900000yyy04ry9000yy0600e000iyyiiyyyi00e%00<3oO1e0*0eie00",
"000r0i00ryyr0yy0006O1*<09340yyyyyyu000r00340iyy0yyyy0i3q09;0i000;*00y00yy0iyyyye0003y040O*e6;*e00;y0",
"0000000:0yyyy0y00i0$44000000yyyyi0yyyui00e0yyyyyqyyyi0109e40r0400380yy00yyiiyy000y00y043O*30**0004y6",
"000>0;10ye0:00<000080y0<0:49000iiyyye0yi0q0yyy00i00004O;44:0u064e44eiy00yiyyy000i000y0*OX3;6+*400:00",
"e0900*0y000000000i00i0yy000ir0000yyy000i00yy0000000004.;4O#:yyy:4<0000000iiyyyyyy040ti1O=006*4600000",
"094040yy0000e0000q00i:yii0yyii00000000yy3eri0:0e0000yi06>440000i4;60000y0yyyyyyyy0*00y34q00;*044::0i",
"40*e4yyi00:0e0000040i3yyyyyyyyyyy0000ry0*0yyyi0000eyiy0;000u009000900y0iiyyyyyyyy9000060094*303**004",
"e0:90iyyi000iiy06;0yr*tyi0i0yyyyyy0<iyi69iyyy000000yyi0300000000y049ei0iiyiyyyii:0i0000844:14:9*%y:9",
"ye04yiyyy00ie0i0:;yi;*i0yiiyyiyyyyy0yyiery000000tyyi0i04*09:0q96e00000ii00yii0i<00yy0004*00*0000e09e",
"yyi4000i00r0000000e8O0yiyiiiyy0000yyiy0u0yi00quy000440044460y604490000i0000i00;8yyyy0060uy060000009i",
"yy00494e000000000;09;yyyyyyiy040reuii00ueiute046;1**400000iye0000000e0000e64;400iyy0e93406;00000040y",
"0y00e0ee000090:600<03iiyyyyiy00iy40i000ue0004*=440eeyi000900900e00000ii0000yie000000eOX34*-00000*ey0",
"<0yee00000i00944000y3eyyyyyyy0iiye0000y6e00e0ie0yyyy000000:44i0000000000000000i0:0:9;*1249i00464:0i0",
"00y0000e009::00:000y**eyyyyiyyyyi000iyyO00yirryiyyi000000:;3we:6:0000000006e00000000:00900004**;0iee",
"y00yyyyyyyy03*200ei03:eryyyyyyyyyii0y0r*0iyyiyyyy0000000003X134000000i0000;30000yyiy0040e0009400yy0y"
};
